<svg xmlns="http://www.w3.org/2000/svg" viewBox="0 0 40 40" fill="none">
  <defs>
    <radialGradient id="mist"><stop stop-color="#d1e8ff" stop-opacity=".4"/><stop offset="1" stop-color="#819ed9" stop-opacity="0"/></radialGradient>
    <linearGradient id="arm" x1="7" y1="31" x2="33" y2="9" gradientUnits="userSpaceOnUse"><stop stop-color="#788bc1" stop-opacity=".25"/><stop offset=".5" stop-color="#d2e5f7"/><stop offset="1" stop-color="#a9b6e3" stop-opacity=".3"/></linearGradient>
  </defs>
  <circle cx="20" cy="20" r="19" fill="url(#mist)"/>
  <g stroke="url(#arm)" stroke-width="1.25" stroke-linecap="round">
    <path d="M20 20c-8-2-14 1-14 6 0 7 16 9 25-1 8-9 1-18-9-15"/>
    <path d="M20 20c8 2 14-1 14-6 0-7-16-9-25 1-8 9-1 18 9 15"/>
  </g>
  <path d="m20 14 1.5 4.5L26 20l-4.5 1.5L20 26l-1.5-4.5L14 20l4.5-1.5Z" fill="#eef5ff"/>
  <circle cx="31" cy="8" r="1" fill="#d6e3f6"/><circle cx="7" cy="31" r=".7" fill="#b6cbe6"/>
</svg>
